<?xml version="1.0" encoding="utf-8"?>
<!-- Generator: Adobe Illustrator 27.0.0, SVG Export Plug-In . SVG Version: 6.00 Build 0)  -->
<svg version="1.1" id="Layer_1" xmlns="http://www.w3.org/2000/svg" xmlns:xlink="http://www.w3.org/1999/xlink" x="0px" y="0px"
	 viewBox="0 0 1080 1080" style="enable-background:new 0 0 1080 1080;" xml:space="preserve">
<style type="text/css">
	.st0{fill:#002A4A;}
	.st1{fill:#FFB719;}
	.st2{fill:#88C6E9;}
	.st3{fill:#148DC3;}
	.st4{fill:#EC7723;}
	.st5{fill:#FFFFFF;}
	.st6{fill:#272727;}
	.st7{fill:#CDCDCD;}
	.st8{fill:#C4C4C4;}
	.st9{fill:#8C8C8C;}
	.st10{fill:#A2A2A2;}
</style>
<rect class="st2" width="1080" height="1080"/>
<g>
	<g>
		<path class="st5" d="M237.3,747.5v5h-12.4v-52h5.6v47H237.3z"/>
		<path class="st5" d="M237.3,747.5h18.1v5h-18.1V747.5z"/>
		<path class="st5" d="M255.4,747.5h18.1v5h-18.1V747.5z"/>
		<path class="st5" d="M273.5,747.5h18.1v5h-18.1V747.5z"/>
		<path class="st5" d="M291.6,747.5h29.6v5h-29.6V747.5z"/>
		<path class="st5" d="M321.2,747.5h18.1v5h-18.1V747.5z"/>
		<path class="st5" d="M339.3,747.5h18.1v5h-18.1V747.5z"/>
		<path class="st5" d="M357.4,747.5h18.1v5h-18.1V747.5z"/>
		<path class="st5" d="M375.5,747.5h18.1v5h-18.1V747.5z"/>
		<path class="st5" d="M393.7,747.5h18.1v5h-18.1V747.5z"/>
		<path class="st5" d="M411.8,747.5h18.1v5h-18.1V747.5z"/>
		<path class="st5" d="M429.9,747.5H448v5h-18.1V747.5z"/>
		<path class="st5" d="M475.2,747.5v5H448v-5h10.8v-31.2h5.6v31.2H475.2z M454.3,758.3h5.5v6.1h-5.5V758.3z M463.3,758.3h5.5v6.1
			h-5.5V758.3z"/>
		<path class="st5" d="M491.6,716.3v36.2h-16.4v-5H486v-31.2H491.6z M486,703.5h5.5v6.1H486V703.5z"/>
		<path class="st5" d="M516.3,747.5v5h-12.4v-52h5.6v47H516.3z"/>
		<path class="st5" d="M554.3,719.9c2.8,2.9,4.2,7.7,4.2,14.5v18.1h-42.2v-5h12c-0.7-4.2-1-8.4-1-12.7c0-3.2,0.2-6.4,0.6-9.6
			c0.4-3.2,0.8-5.7,1.3-7.7c1.2-0.5,2.9-0.9,5.1-1.3c2.2-0.4,4.6-0.6,7-0.6C547.1,715.6,551.5,717,554.3,719.9z M533.1,741.9
			c0.2,2.3,0.4,4.2,0.7,5.6h19.1v-13.2c0-4.9-1-8.5-3.1-10.6c-2.1-2.1-5.2-3.2-9.5-3.2c-2.4,0-4.5,0.2-6.3,0.7
			c-0.8,4.2-1.2,8.7-1.2,13.6C532.8,737.2,532.9,739.6,533.1,741.9z"/>
		<path class="st5" d="M592.1,752.5H583v0.8c0,11.5-4,17.2-12,17.2c-0.8,0-1.5,0-2.1-0.1c-0.7,0-1.2-0.1-1.7-0.1l-1.5-0.1v-4.9
			c2.4,0.2,3.9,0.3,4.6,0.3c2.4,0,4.2-1,5.4-2.9c1.2-1.9,1.8-4.6,1.8-8v-38.3h5.6v31.2h9.1V752.5z"/>
		<path class="st5" d="M619.3,747.5v5h-27.2v-5h10.8v-31.2h5.6v31.2H619.3z M598.3,758.3h5.5v6.1h-5.5V758.3z M607.4,758.3h5.5v6.1
			h-5.5V758.3z"/>
		<path class="st5" d="M619.3,747.5h18.1v5h-18.1V747.5z"/>
		<path class="st5" d="M637.4,747.5h18.1v5h-18.1V747.5z"/>
		<path class="st5" d="M655.5,747.5h18.1v5h-18.1V747.5z"/>
		<path class="st5" d="M673.6,747.5h18.1v5h-18.1V747.5z"/>
		<path class="st5" d="M691.8,747.5h18.1v5h-18.1V747.5z"/>
		<path class="st5" d="M709.9,747.5H728v5h-18.1V747.5z"/>
		<path class="st5" d="M728,747.5h18.1v5H728V747.5z"/>
		<path class="st5" d="M746.1,747.5h18.1v5h-18.1V747.5z"/>
		<path class="st5" d="M764.2,747.5h18.1v5h-18.1V747.5z"/>
		<path class="st5" d="M782.4,747.5h18.1v5h-18.1V747.5z"/>
		<path class="st5" d="M854.4,725.1c0.5,3.1,0.7,5.5,0.7,7.3v20.1h-13.5c-2.9,0-5.6-1-8-3c-1.7,2-4,3-6.9,3h-26.2v-5h11.7v-27.6h5.6
			v27.6h7.2c2.2,0,3.8-1,4.8-2.9c1-1.9,1.5-4.3,1.5-7.2v-17.5h5.6v17.5c0,2.9-0.3,5.5-1,7.7c0.7,0.6,1.6,1.2,2.8,1.7
			c1.1,0.5,2.2,0.8,3.3,0.8h7.6v-15.7c0-1.8-0.1-4.1-0.4-6.9c-0.3-2.8-0.6-5.6-0.9-8.4l4.6-0.2C853.4,719,854,722,854.4,725.1z"/>
	</g>
	<g>
		<g>
			<path class="st5" d="M230.2,687.5l-4.3-0.8l1.7-12.8c10.7,1.4,18.9,2.2,24.6,2.2c8.5,0,12.7-3.5,12.7-10.6c0-2.9-1.1-5-3.4-6.4
				c-2.2-1.4-6-2.8-11.3-4.3c-6.3-1.8-11.3-3.7-14.9-5.9c-3.6-2.2-6.3-4.7-7.9-7.7c-1.6-3-2.5-6.6-2.5-11c0-8,2.4-14,7.3-18.1
				c4.9-4.1,11.7-6.1,20.5-6.1c3.4,0,7,0.2,10.7,0.7c3.7,0.4,9.1,1.3,16.2,2.6l-1.3,13.1c-11-1.3-18.9-1.9-23.9-1.9
				c-8.7,0-13.1,2.9-13.1,8.6c0,2,0.7,3.6,2.2,4.9c1.4,1.3,3.2,2.3,5.4,3.2c2.2,0.8,5.8,2.1,10.9,3.7c5.5,1.8,9.8,3.6,12.8,5.5
				c3,1.9,5.2,4.3,6.6,7.1c1.4,2.8,2,6.5,2,11c0,8.4-2.5,14.8-7.6,19.3c-5.1,4.5-11.9,6.7-20.6,6.7
				C246.8,690.4,239.2,689.4,230.2,687.5z"/>
			<path class="st5" d="M318.7,656l-25.2-48.6h18.4l15,32.5l15-32.5h18.4l-25,48.6v33h-16.6V656z"/>
			<path class="st5" d="M378.8,607.4h31.7c19.2,0,28.8,9,28.8,26.9c0,10.6-4,18.5-12,23.5l11.6,31.2h-18.1l-9.5-27.4h-16v27.4h-16.6
				V607.4z M410.7,647.4c3.8,0,6.6-1.2,8.6-3.5c2-2.4,3-5.5,3-9.5c0-4-1-7.1-3.1-9.4c-2.1-2.3-5-3.4-8.8-3.4h-15.1v25.9H410.7z"/>
			<path class="st5" d="M548,607.4v81.6h-16.6v-63.1h-1.8l-16,59.5h-16.6l-16-59.5h-1.8v63.1h-16.6v-81.6H491l14.4,59.4l14.4-59.4
				H548z"/>
			<path class="st5" d="M616.8,674.2h-28.6l-3.2,14.8h-16.6l18.4-81.6h31.4l18.4,81.6h-16.6L616.8,674.2z M605.4,621h-5.8l-8.3,38.8
				h22.3L605.4,621z"/>
			<path class="st5" d="M722.5,607.4v81.6h-27.2l-20.4-67.2h-1.2v67.2h-16.6v-81.6h28l19.7,67.2h1.2v-67.2H722.5z"/>
			<path class="st5" d="M749.9,607.4h16.6v81.6h-16.6V607.4z"/>
			<path class="st5" d="M835.3,674.2h-28.6l-3.2,14.8H787l18.4-81.6h31.4l18.4,81.6h-16.6L835.3,674.2z M823.9,621h-5.8l-8.3,38.8
				h22.3L823.9,621z"/>
		</g>
	</g>
	<g>
		<path class="st5" d="M489.4,520.7c0.1-0.1,0.3-0.3,0.4-0.4c0.2-3.4,0.7-6.9,1.5-10.5c0.6-2.7,1.4-5.4,2.3-8.1
			c-0.8-0.7-1.7-1.3-2.7-1.7c-1.3-0.5-2.9-0.7-4.7-0.5c-1.8,0.1-3.9,0.5-6.2,1.1c-0.6,2.1-1.2,4.4-1.6,6.8
			c-0.9,4.5-1.5,9.3-1.7,14.2c-0.1,2.6-0.1,5.1,0.2,7.7c1-0.5,1.8-1,2.5-1.4C483.4,525.6,486.7,523.2,489.4,520.7z"/>
		<path class="st5" d="M537.1,524.8c0.2-0.4,0.4-0.8,0.7-1.2c0.2-0.3,0.3-0.6,0.5-0.9c0.9-1.6,1.8-3,2.8-4.2c0.4-0.5,0.8-1,1.2-1.4
			c1.6-1.8,3.3-3.2,5.1-4c1.5-0.7,3.2-1,5.1-1l0,0l0,0c0.3,0,0.7,0,1,0c0.4,0,0.8,0.1,1.2,0.1c4.2,0.6,7.2,2.6,9.2,6
			c1.8,3,2.6,7,2.6,12.2c1.2,1.3,2.4,2.4,3.7,3.5c1.4,1.1,2.8,1.9,4.3,2.4c1.4,0.5,2.7,0.6,4.1,0.4c0.2,0,0.4-0.1,0.6-0.1
			c0.2-1.3,0.3-2.6,0.3-3.9c0.3-4.8-0.1-9.5-1-14c-0.9-4.4-2.5-8.4-4.6-11.9c-2.1-3.4-5-6.2-8.4-8.4c-3.4-2.1-7.6-3.3-12.4-3.6
			c-4.3-0.2-7.9,0.2-11,1.3c-3,1.1-5.8,2.8-8.2,5c-2.5,2.3-4.7,5.2-6.7,8.3c-2,3.3-4.1,7-6,11.1c-1.5,3.3-3,6.2-4.4,8.7
			c-1.4,2.5-2.8,4.6-4.3,6.2c-1.5,1.7-3.1,3-4.8,3.8c-1.7,0.8-3.7,1.2-5.9,1.1c-1-0.1-1.9-0.2-2.7-0.4c-2.3,1.8-4.9,3.6-7.6,5.4
			c-1.7,1.1-4.1,2.5-6.8,4c1.6,1.8,3.5,3.4,5.6,4.7c3.4,2.1,7.6,3.4,12.5,3.6c3.7,0.2,7-0.2,9.9-1.3c2.9-1.1,5.6-2.8,8-4.9
			c2.4-2.2,4.7-5,6.7-8.1c2-3.2,4-6.8,5.9-10.7C534.6,529.7,535.9,527.1,537.1,524.8z"/>
		<path class="st5" d="M543.7,554.2c-3.3-2.4-8-1.7-10.4,1.7s-1.7,8,1.7,10.4c3.3,2.4,8,1.7,10.4-1.7
			C547.8,561.3,547,556.6,543.7,554.2z"/>
		<path class="st5" d="M446.1,460.9c0.2,0,0.4,0,0.6,0c2.6-2.3,5.4-4.4,8.5-6.4c2.3-1.5,4.8-2.9,7.3-4c-0.1-1.1-0.3-2.1-0.7-3.1
			c-0.6-1.3-1.6-2.5-3-3.7c-1.4-1.2-3.1-2.4-5.2-3.6c-2,1.1-4,2.3-6,3.7c-3.8,2.6-7.6,5.5-11.2,8.8c-1.9,1.7-3.7,3.6-5.3,5.6
			c1,0.3,2,0.5,2.8,0.7C438.4,460.1,442.5,460.7,446.1,460.9z"/>
		<path class="st5" d="M495.1,537.9c0.6-0.4,1.1-0.8,1.6-1.2c0.6-0.4,1.1-0.9,1.6-1.3c1-0.8,2-1.7,2.9-2.5c3.6-3.2,6.7-6.8,9.2-10.6
			c2.5-3.7,4.2-7.7,5.1-11.7c0.9-3.9,0.9-7.9,0-11.9c-1-3.9-3-7.7-6.2-11.3c-2.8-3.2-5.7-5.5-8.7-6.9c-2.9-1.4-6-2.1-9.3-2.2
			c-3.4-0.1-7,0.3-10.7,1.2c-3.8,0.9-7.8,2.1-12.1,3.6c-3.4,1.3-6.5,2.3-9.2,3c-2.8,0.8-5.3,1.2-7.4,1.4c-2.3,0.2-4.3-0.1-6.1-0.7
			c-1.8-0.6-3.5-1.8-4.9-3.4c-0.7-0.7-1.2-1.5-1.6-2.2c-2.9-0.4-6-0.9-9.2-1.5c-2-0.4-4.6-1.1-7.5-2c-0.2,2.4,0,4.8,0.6,7.2
			c0.9,3.9,3,7.8,6.3,11.4c2.5,2.7,5.1,4.8,7.9,6.1c2.8,1.3,5.9,2,9.1,2.2c3.3,0.2,6.9-0.1,10.5-0.9c3.7-0.8,7.6-2,11.7-3.5
			c3-1.1,5.7-2,8.2-2.8c0.5-0.1,0.9-0.3,1.3-0.4c0.3-0.1,0.6-0.2,1-0.2c1.8-0.5,3.4-0.8,4.9-1c0.6-0.1,1.2-0.1,1.8-0.2
			c2.4-0.2,4.6,0.1,6.4,0.8c1.6,0.6,3,1.6,4.3,2.8c0,0,0,0,0.1,0c0.2,0.2,0.5,0.5,0.7,0.7c0.3,0.3,0.5,0.6,0.8,0.9
			c2.5,3.4,3.3,7,2.3,10.7c-0.9,3.4-3.1,6.8-6.8,10.4c-0.5,0.5-1.1,1-1.7,1.5c-0.1,0.1-0.2,0.2-0.3,0.3c-0.6,0.5-1.3,1.1-1.9,1.6
			c-2.4,1.9-5.3,3.9-8.4,5.8c-1,0.6-2.4,1.4-3.9,2.2c0,0.2,0.1,0.5,0.1,0.7c0.8,4.1,2.3,7.9,4.4,11.4c0.1,0.1,0.2,0.3,0.3,0.4
			c2.7-1.5,5.3-2.9,7-4.1C491.3,540.7,493.3,539.3,495.1,537.9z"/>
		<path class="st5" d="M452.3,516.8c-4.1,0.7-6.8,4.5-6.2,8.5c0.7,4.1,4.5,6.8,8.5,6.2c4.1-0.7,6.8-4.5,6.2-8.5
			C460.2,518.9,456.4,516.1,452.3,516.8z"/>
		<path class="st5" d="M427.2,419.3c2.2,2.5,5,4.7,8.1,6.8c3.2,2,6.8,4,10.7,5.8c2.9,1.3,5.5,2.6,7.7,3.8c0.4,0.2,0.8,0.4,1.2,0.7
			c0.3,0.2,0.6,0.3,0.8,0.5c1.6,0.9,3,1.8,4.2,2.8c0.5,0.4,1,0.8,1.4,1.1c1.8,1.6,3.1,3.3,4,5.1c0.7,1.5,1,3.2,1,5.1c0,0,0,0,0,0.1
			c0,0.3,0,0.7,0,1c0,0.4-0.1,0.8-0.1,1.2c-0.6,4.2-2.6,7.2-6,9.2c-3,1.8-7,2.6-12.2,2.6c-0.7,0-1.5,0-2.3-0.1c-0.1,0-0.3,0-0.4,0
			c-0.8-0.1-1.6-0.1-2.5-0.2c-3.1-0.3-6.5-0.9-10-1.8c-1.2-0.3-2.7-0.7-4.3-1.2c-0.1,0.2-0.3,0.3-0.4,0.5c-2.3,3.5-4,7.3-4.9,11.2
			c0,0.2-0.1,0.4-0.1,0.5c3,0.9,5.8,1.6,7.8,2c2.4,0.5,4.7,0.9,7,1.2c0.7,0.1,1.4,0.2,2,0.3c0.7,0.1,1.4,0.2,2,0.2
			c1.3,0.2,2.6,0.3,3.9,0.3c4.8,0.3,9.5-0.1,14-1c4.4-0.9,8.4-2.5,11.9-4.6c3.4-2.1,6.2-5,8.4-8.4c2.1-3.4,3.3-7.6,3.6-12.4
			c0.2-4.3-0.2-7.9-1.3-11c-1.1-3-2.8-5.8-5-8.2c-2.3-2.5-5.1-4.7-8.3-6.7c-3.3-2-7-4.1-11.1-6c-3.3-1.5-6.2-3-8.7-4.4
			c-2.5-1.4-4.6-2.8-6.2-4.3c-1.7-1.5-3-3.1-3.8-4.8c-0.8-1.7-1.2-3.7-1.1-5.9c0.1-1,0.2-1.9,0.4-2.7c-1.8-2.3-3.6-4.9-5.4-7.6
			c-1.1-1.7-2.5-4.1-4-6.7c-1.8,1.6-3.4,3.5-4.7,5.6c-2.1,3.4-3.4,7.6-3.6,12.5c-0.2,3.7,0.2,7,1.3,9.9
			C423.4,414.2,425,416.9,427.2,419.3z"/>
		<path class="st5" d="M449.1,375.5c0.5,0.9,1,1.8,1.4,2.4c2.4,4,4.8,7.3,7.3,10c0.1,0.1,0.3,0.3,0.4,0.4c3.4,0.2,6.9,0.7,10.5,1.5
			c2.7,0.6,5.4,1.3,8.1,2.3c0.7-0.8,1.3-1.7,1.7-2.7c0.5-1.3,0.7-2.9,0.5-4.7c-0.1-1.8-0.5-3.9-1.1-6.2c-2.1-0.6-4.4-1.2-6.8-1.6
			c-4.5-0.9-9.3-1.5-14.2-1.7C454.3,375.2,451.7,375.2,449.1,375.5z"/>
		<path class="st5" d="M424.4,442.3c2.4-3.3,1.7-8-1.7-10.4c-3.3-2.4-8-1.7-10.4,1.7c-2.4,3.3-1.7,8,1.7,10.4
			C417.3,446.4,422,445.6,424.4,442.3z"/>
		<path class="st5" d="M528,361.1c1.1-0.1,2.1-0.3,3.1-0.7c1.3-0.6,2.5-1.5,3.7-2.9c1.2-1.4,2.4-3.1,3.6-5.2c-1.1-2-2.3-4-3.7-6
			c-2.5-3.8-5.5-7.6-8.8-11.2c-1.7-1.9-3.6-3.7-5.6-5.3c-0.3,1-0.5,2-0.7,2.8c-1.1,4.5-1.8,8.6-2,12.2c0,0.2,0,0.4,0,0.6
			c2.3,2.6,4.4,5.4,6.4,8.4C525.5,356.1,526.9,358.5,528,361.1z"/>
		<path class="st5" d="M440.6,393.7c0.4,0.6,0.8,1.1,1.2,1.6c0.4,0.6,0.9,1.1,1.3,1.7c0.8,1,1.7,2,2.5,2.9c3.2,3.6,6.8,6.7,10.6,9.2
			c3.7,2.5,7.7,4.2,11.7,5.1c3.9,0.9,7.9,0.9,11.9-0.1c3.9-0.9,7.7-3,11.3-6.2c3.2-2.8,5.5-5.7,6.9-8.7s2.1-6,2.2-9.3
			c0.1-3.4-0.3-7-1.2-10.7c-0.9-3.8-2.1-7.8-3.6-12.1c-1.3-3.4-2.3-6.5-3-9.2c-0.8-2.8-1.2-5.3-1.4-7.4c-0.2-2.3,0.1-4.3,0.7-6.1
			c0.6-1.8,1.8-3.5,3.4-4.9c0.7-0.7,1.5-1.2,2.2-1.7c0.4-2.9,0.9-6,1.5-9.2c0.4-2,1.1-4.7,1.9-7.6c-2.4-0.1-4.8,0-7.2,0.6
			c-3.9,0.9-7.8,3-11.4,6.3c-2.7,2.5-4.8,5.1-6.1,7.9c-1.3,2.8-2,5.9-2.2,9.2c-0.2,3.3,0.1,6.9,0.9,10.5c0.8,3.7,2,7.7,3.5,11.7
			c1.1,3,2,5.7,2.8,8.1c0.1,0.5,0.3,0.9,0.4,1.4c0.1,0.3,0.2,0.6,0.2,0.9c0.5,1.8,0.8,3.4,1,4.9c0.1,0.6,0.2,1.2,0.2,1.8
			c0.2,2.4-0.1,4.6-0.8,6.4c-0.6,1.6-1.6,3-2.8,4.3c0,0,0,0,0,0.1c-0.2,0.2-0.5,0.5-0.7,0.7c-0.3,0.3-0.6,0.5-0.9,0.8
			c-3.4,2.5-7,3.3-10.7,2.3c-3.4-0.9-6.8-3.1-10.4-6.8c-0.5-0.5-1-1.1-1.5-1.7c-0.1-0.1-0.2-0.2-0.3-0.3c-0.6-0.6-1.1-1.3-1.6-1.9
			c-1.9-2.4-3.9-5.3-5.8-8.4c-0.6-1-1.4-2.4-2.2-3.9c-0.2,0-0.5,0.1-0.7,0.1c-4.1,0.8-7.9,2.3-11.4,4.4c-0.2,0.1-0.3,0.2-0.4,0.3
			c1.5,2.7,2.9,5.3,4.1,7C437.9,389.9,439.2,391.8,440.6,393.7z"/>
		<path class="st5" d="M455.6,359.4c4.1-0.7,6.8-4.5,6.2-8.5c-0.7-4.1-4.5-6.8-8.5-6.2c-4.1,0.7-6.8,4.5-6.2,8.5
			C447.7,357.3,451.5,360.1,455.6,359.4z"/>
		<path class="st5" d="M590.6,356.4c-0.1,0.1-0.3,0.3-0.4,0.4c-0.2,3.4-0.7,6.9-1.5,10.5c-0.6,2.7-1.3,5.4-2.3,8.1
			c0.8,0.7,1.7,1.3,2.7,1.7c1.3,0.5,2.9,0.7,4.7,0.6c1.8-0.1,3.9-0.5,6.2-1.1c0.7-2.1,1.2-4.4,1.6-6.8c0.9-4.5,1.5-9.3,1.7-14.2
			c0.1-2.6,0.1-5.2-0.2-7.7c-1,0.5-1.8,1-2.5,1.4C596.6,351.5,593.3,354,590.6,356.4z"/>
		<path class="st5" d="M506.3,370.4c2.1,3.4,5,6.2,8.4,8.4c3.4,2.1,7.6,3.3,12.4,3.6c4.3,0.2,8-0.2,11-1.3c3-1.1,5.8-2.8,8.2-5
			c2.5-2.3,4.7-5.2,6.7-8.4c2-3.3,4-7,6-11.1c1.5-3.3,3-6.2,4.4-8.7c1.4-2.5,2.8-4.6,4.3-6.2c1.5-1.7,3.1-3,4.8-3.8
			c1.7-0.8,3.7-1.2,5.9-1.1c1,0.1,1.9,0.2,2.8,0.4c2.3-1.8,4.9-3.6,7.6-5.4c1.7-1.1,4.1-2.5,6.7-4c-1.6-1.8-3.4-3.4-5.5-4.7
			c-3.4-2.2-7.6-3.4-12.6-3.6c-3.7-0.2-7,0.2-9.9,1.3c-2.9,1.1-5.6,2.7-8,4.9c-2.5,2.2-4.7,5-6.8,8.1c-2,3.2-4,6.8-5.8,10.7
			c-1.3,2.9-2.6,5.4-3.8,7.7c-0.2,0.4-0.4,0.8-0.7,1.2c-0.2,0.3-0.3,0.6-0.5,0.9c-0.9,1.6-1.8,3-2.8,4.2c-0.4,0.5-0.8,1-1.1,1.4
			c-1.6,1.8-3.3,3.2-5.1,4c-1.5,0.7-3.2,1-5.1,1.1c0,0,0,0-0.1,0c-0.3,0-0.7,0-1,0c-0.4,0-0.8-0.1-1.2-0.1c-4.2-0.6-7.2-2.6-9.2-6
			c-1.8-3-2.6-7-2.6-12.2c0-0.7,0-1.5,0.1-2.3c0-0.1,0-0.3,0-0.4c0.1-0.8,0.1-1.6,0.2-2.5c0.3-3.1,0.9-6.5,1.8-10
			c0.3-1.2,0.7-2.7,1.2-4.3c-0.2-0.1-0.4-0.3-0.6-0.4c-3.5-2.3-7.2-4-11.2-5c-0.2,0-0.3-0.1-0.5-0.1c-0.9,3-1.6,5.8-2.1,7.8
			c-0.5,2.4-0.9,4.7-1.2,7c-0.1,0.7-0.2,1.4-0.3,2c-0.1,0.7-0.2,1.4-0.2,2c-0.2,1.3-0.3,2.6-0.3,3.9c-0.3,4.8,0.1,9.5,1,14
			C502.5,362.9,504.1,366.9,506.3,370.4z"/>
		<path class="st5" d="M536.3,322.9c3.3,2.4,8,1.7,10.4-1.7c2.4-3.3,1.7-8-1.7-10.4c-3.3-2.4-8-1.7-10.4,1.7
			C532.2,315.9,533,320.5,536.3,322.9z"/>
		<path class="st5" d="M633.9,416.2c-0.2,0-0.4,0-0.6,0c-2.6,2.3-5.4,4.4-8.4,6.4c-2.3,1.5-4.8,2.9-7.3,4.1c0.1,1.1,0.3,2.1,0.7,3.1
			c0.6,1.3,1.5,2.5,2.9,3.7c1.4,1.2,3.1,2.4,5.2,3.6c2-1.1,4-2.3,6-3.7c3.8-2.5,7.6-5.5,11.2-8.8c1.9-1.7,3.7-3.6,5.3-5.6
			c-1-0.3-2-0.5-2.7-0.7C641.6,417.1,637.5,416.4,633.9,416.2z"/>
		<path class="st5" d="M584.9,339.2c-0.6,0.4-1.1,0.8-1.6,1.2c-0.6,0.4-1.1,0.9-1.7,1.3c-1,0.8-2,1.7-2.9,2.5
			c-3.6,3.2-6.7,6.8-9.2,10.6c-2.5,3.8-4.2,7.7-5.1,11.7c-0.9,3.9-0.9,7.9,0.1,11.9c0.9,3.9,3,7.7,6.2,11.3c2.8,3.2,5.7,5.5,8.7,6.9
			c2.9,1.4,6,2.1,9.3,2.2c3.3,0.1,7-0.3,10.7-1.2c3.8-0.9,7.8-2.1,12.1-3.6c3.4-1.2,6.5-2.3,9.2-3c2.8-0.8,5.3-1.2,7.4-1.4
			c2.3-0.2,4.3,0.1,6.1,0.7c1.8,0.6,3.5,1.8,4.9,3.4c0.7,0.7,1.2,1.5,1.6,2.2c2.9,0.4,6,0.9,9.2,1.5c1.9,0.4,4.6,1.1,7.5,2
			c0.2-2.4,0-4.8-0.6-7.3c-0.9-3.9-3-7.8-6.3-11.5c-2.5-2.7-5.1-4.8-7.9-6.1c-2.8-1.3-5.9-2-9.2-2.2c-3.3-0.2-6.9,0.1-10.5,0.9
			c-3.7,0.8-7.7,1.9-11.7,3.5c-3,1.1-5.7,2-8.1,2.8c-0.5,0.1-0.9,0.3-1.4,0.4c-0.3,0.1-0.6,0.2-0.9,0.2c-1.8,0.5-3.4,0.8-4.9,1
			c-0.6,0.1-1.2,0.2-1.8,0.2c-2.4,0.2-4.6-0.1-6.4-0.8c-1.6-0.6-3-1.5-4.3-2.8c0,0,0,0-0.1,0c-0.2-0.2-0.5-0.5-0.7-0.7
			c-0.3-0.3-0.5-0.6-0.8-0.9c-2.5-3.4-3.3-7-2.3-10.7c0.9-3.4,3.1-6.8,6.8-10.4c0.5-0.5,1.1-1,1.7-1.5c0.1-0.1,0.2-0.2,0.3-0.3
			c0.6-0.6,1.3-1.1,1.9-1.6c2.4-1.9,5.3-3.9,8.4-5.8c1-0.6,2.4-1.4,3.9-2.2c0-0.2-0.1-0.5-0.1-0.7c-0.8-4.1-2.3-7.9-4.4-11.4
			c-0.1-0.2-0.2-0.3-0.3-0.5c-2.7,1.5-5.3,3-7,4.1C588.7,336.5,586.7,337.8,584.9,339.2z"/>
		<path class="st5" d="M627.7,360.4c4.1-0.7,6.8-4.5,6.2-8.5c-0.7-4.1-4.5-6.8-8.5-6.2c-4.1,0.7-6.8,4.5-6.2,8.5
			C619.8,358.2,623.6,361,627.7,360.4z"/>
		<path class="st5" d="M652.8,457.8c-2.2-2.5-5-4.7-8.1-6.7c-3.2-2-6.8-4-10.7-5.9c-2.9-1.3-5.4-2.6-7.7-3.8
			c-0.4-0.2-0.8-0.4-1.2-0.7c-0.3-0.2-0.6-0.3-0.9-0.5c-1.6-0.9-3-1.8-4.2-2.8c-0.5-0.4-1-0.8-1.4-1.2c-1.8-1.6-3.2-3.3-4-5.1
			c-0.7-1.5-1-3.2-1.1-5.1c0,0,0,0,0-0.1c0-0.3,0-0.7,0-1c0-0.4,0.1-0.8,0.1-1.2c0.6-4.2,2.6-7.2,6-9.2c3-1.8,7-2.6,12.1-2.6
			c0.7,0,1.5,0,2.3,0.1c0.1,0,0.3,0,0.4,0c0.8,0.1,1.7,0.1,2.5,0.2c3.1,0.3,6.4,0.9,10,1.8c1.2,0.3,2.7,0.7,4.3,1.2
			c0.1-0.2,0.3-0.4,0.4-0.6c2.3-3.5,4-7.2,5-11.1c0-0.2,0.1-0.3,0.1-0.5c-3-0.9-5.8-1.6-7.8-2.1c-2.4-0.5-4.7-0.9-7-1.2
			c-0.7-0.1-1.4-0.2-2-0.3c-0.7-0.1-1.4-0.2-2-0.2c-1.3-0.2-2.6-0.3-3.9-0.3c-4.8-0.3-9.5,0.1-14,1c-4.4,0.9-8.4,2.5-11.9,4.6
			c-3.4,2.1-6.2,5-8.4,8.4c-2.1,3.4-3.3,7.6-3.6,12.4c-0.2,4.3,0.2,7.9,1.3,11c1.1,3,2.8,5.8,5,8.2c2.3,2.5,5.2,4.7,8.4,6.7
			c3.3,2,7,4,11.1,6c3.3,1.5,6.2,3,8.7,4.4c2.5,1.4,4.6,2.9,6.2,4.3c1.7,1.5,3,3.1,3.8,4.8c0.8,1.7,1.2,3.7,1.1,5.9
			c-0.1,1-0.2,1.9-0.4,2.8c1.8,2.3,3.6,4.9,5.4,7.5c1.1,1.7,2.5,4.1,4,6.8c1.8-1.6,3.4-3.5,4.7-5.6c2.2-3.4,3.4-7.6,3.6-12.5
			c0.2-3.7-0.2-7-1.3-9.9C656.7,462.9,655,460.3,652.8,457.8z"/>
		<path class="st5" d="M630.9,501.6c-0.5-1-1-1.8-1.4-2.5c-2.4-3.9-4.8-7.3-7.3-10c-0.1-0.1-0.3-0.3-0.4-0.4
			c-3.4-0.2-6.9-0.7-10.5-1.5c-2.7-0.6-5.4-1.4-8.1-2.3c-0.8,0.8-1.3,1.7-1.7,2.7c-0.5,1.3-0.7,2.9-0.5,4.7c0.1,1.8,0.5,3.9,1.1,6.2
			c2.1,0.6,4.4,1.2,6.8,1.6c4.5,0.9,9.3,1.5,14.2,1.7C625.7,502,628.3,501.9,630.9,501.6z"/>
		<path class="st5" d="M666,433.2c-3.3-2.4-8-1.7-10.4,1.7c-2.4,3.3-1.7,8,1.7,10.4c3.3,2.4,8,1.7,10.4-1.7
			C670.1,440.3,669.4,435.6,666,433.2z"/>
		<path class="st5" d="M639.4,483.4c-0.4-0.5-0.8-1.1-1.2-1.6c-0.4-0.6-0.9-1.1-1.3-1.7c-0.8-1-1.7-2-2.5-2.9
			c-3.2-3.6-6.8-6.7-10.6-9.2c-3.8-2.5-7.7-4.2-11.7-5.1c-3.9-0.9-7.9-0.9-11.9,0c-3.9,1-7.7,3-11.3,6.2c-3.2,2.8-5.5,5.7-6.9,8.7
			c-1.4,2.9-2.1,6-2.2,9.3c-0.1,3.4,0.3,7,1.2,10.7c0.9,3.7,2.1,7.8,3.6,12.1c1.2,3.4,2.3,6.5,3,9.2c0.8,2.8,1.2,5.3,1.4,7.4
			c0.2,2.3-0.1,4.3-0.7,6.1c-0.6,1.8-1.8,3.5-3.4,4.9c-0.7,0.7-1.5,1.2-2.2,1.6c-0.7,0.4-1.4,0.7-2.1,1c-0.5,0.2-1,0.3-1.5,0.4
			c-0.2,0-0.3,0.1-0.5,0.1c-1.8,0.2-3.6,0-5.4-0.7c-1.9-0.6-3.7-1.7-5.5-3.1c-0.5-0.4-1.1-0.9-1.6-1.3c-0.6-0.5-1.2-1.1-1.8-1.7
			c-0.5-0.5-0.9-0.9-1.3-1.4c-0.2-0.2-0.3-0.4-0.5-0.6c-2.3-2.6-4.4-5.4-6.4-8.4c-1.5-2.3-2.9-4.8-4.1-7.3c-1.1,0.1-2.1,0.3-3.1,0.7
			c-1.3,0.6-2.5,1.6-3.7,3c-1.2,1.4-2.4,3.1-3.6,5.2c1.1,2,2.3,4,3.7,6c2.5,3.8,5.5,7.6,8.8,11.2c1.7,1.9,3.6,3.7,5.6,5.3
			c0.6,0.4,1.1,0.9,1.7,1.3c0.5,0.4,1.1,0.8,1.7,1.2c0.2,0.1,0.4,0.3,0.6,0.4c3.5,2.3,7.2,4,11.1,4.9c0.2,0,0.4,0.1,0.5,0.1
			c0.6,0.2,1.3,0.3,1.9,0.4c0.7,0.1,1.3,0.2,2,0.2c2.4,0.2,4.8,0,7.3-0.6c3.9-0.9,7.8-3,11.5-6.3c2.7-2.5,4.8-5.1,6.1-7.9
			c1.3-2.8,2-5.9,2.2-9.1c0.2-3.3-0.1-6.9-0.9-10.5c-0.8-3.7-1.9-7.6-3.5-11.7c-1.1-3-2-5.7-2.8-8.2c-0.1-0.5-0.3-0.9-0.4-1.3
			c-0.1-0.3-0.2-0.6-0.2-0.9c-0.5-1.8-0.8-3.4-1-5c-0.1-0.6-0.2-1.2-0.2-1.8c-0.2-2.4,0.1-4.6,0.8-6.4c0.6-1.6,1.6-3,2.8-4.3
			c0,0,0,0,0-0.1c0.2-0.2,0.5-0.5,0.7-0.7c0.3-0.3,0.6-0.5,0.9-0.8c3.4-2.5,7-3.3,10.7-2.3c3.4,0.9,6.8,3.1,10.4,6.8
			c0.5,0.5,1,1.1,1.5,1.7c0.1,0.1,0.2,0.2,0.3,0.3c0.6,0.6,1.1,1.3,1.7,1.9c1.9,2.4,3.9,5.3,5.8,8.4c0.6,1,1.4,2.4,2.2,3.9
			c0.2,0,0.4-0.1,0.7-0.1c4.1-0.8,7.9-2.3,11.4-4.4c0.2-0.1,0.3-0.2,0.5-0.3c-1.5-2.7-3-5.3-4.1-7
			C642.1,487.2,640.7,485.3,639.4,483.4z"/>
		<path class="st5" d="M624.4,517.7c-4.1,0.7-6.8,4.5-6.2,8.5c0.7,4.1,4.5,6.8,8.5,6.2c4.1-0.7,6.8-4.5,6.2-8.5
			C632.3,519.8,628.5,517.1,624.4,517.7z"/>
	</g>
</g>
</svg>
